<svg width="50" height="17" viewBox="0 0 50 17" fill="none" xmlns="http://www.w3.org/2000/svg">
<g clip-path="url(#clip0_3_717)">
<path d="M6.54773 16.7276C4.81858 16.633 3.70795 16.5809 3.21584 16.5715C2.91355 16.5715 1.84161 16.6235 0 16.7276V15.7339C0.899661 15.7339 1.43586 15.5271 1.60859 15.1135C1.78133 14.6999 1.86725 14.0374 1.86635 13.126V3.833C1.86635 3.15251 1.75929 2.6722 1.54517 2.39206C1.33105 2.11191 0.865024 1.96995 0.147095 1.96616V0.972412C2.39715 1.08125 4.35841 1.13567 6.03088 1.13567C7.74023 1.13567 9.56429 1.08409 11.5031 0.98093C11.5732 2.11665 11.8089 3.08532 12.2102 3.88694L11.356 4.34123C11.0537 3.63141 10.616 3.14352 10.0429 2.87758C9.46983 2.61163 8.50179 2.47676 7.13881 2.47298C6.55493 2.47298 5.71105 2.49522 4.60716 2.5397V8.06354H6.22655C7.05649 8.06354 7.62463 7.95849 7.93501 7.74838C8.24539 7.53827 8.41273 7.16917 8.44107 6.6439L9.29529 6.68933C9.18644 7.79097 9.13156 8.65601 9.13066 9.28444L9.20488 11.2365L8.35065 11.2805V11.0916C8.35065 10.397 8.17657 9.96066 7.8284 9.78273C7.48023 9.60481 6.95168 9.51442 6.24275 9.51158H4.60716V13.2438C4.60716 14.2575 4.69713 14.9233 4.87706 15.2413C5.05699 15.5593 5.61208 15.7216 6.54233 15.7282L6.54773 16.7276Z" fill="#B8B8AA"/>
<path d="M17.2155 16.7276C15.9361 16.6386 14.9731 16.5942 14.3262 16.5942C13.7918 16.5942 12.8777 16.6386 11.584 16.7276V15.7339C12.3505 15.7339 12.8094 15.5749 12.9605 15.2569C13.1117 14.9389 13.1872 14.4103 13.1872 13.6711V7.60922L11.4585 7.67594L12.1333 5.9894H13.1872V4.52575C13.1872 3.19412 13.6479 2.10573 14.5691 1.26056C15.4904 0.415401 16.4917 -0.0048147 17.5731 -8.25479e-05C18.2487 -8.25479e-05 18.8079 0.155132 19.2505 0.465561C19.4542 0.593074 19.6226 0.77441 19.7391 0.991569C19.8555 1.20873 19.916 1.45416 19.9144 1.70349C19.8443 2.46064 19.3944 3.0285 18.565 3.40707C18.4381 2.08206 17.946 1.41956 17.0886 1.41956C16.1323 1.49339 15.6541 2.19611 15.6541 3.52774V5.9894L18.1223 5.85596L17.6365 7.7015L15.6541 7.60922V13.6441C15.6685 14.4278 15.7495 14.971 15.897 15.2739C16.0446 15.5767 16.484 15.7282 17.2155 15.7282V16.7276Z" fill="#B8B8AA"/>
<path d="M23.4811 16.9491C21.9976 16.9491 20.7867 16.4536 19.8483 15.4627C18.91 14.4718 18.4408 13.1775 18.4408 11.58C18.4408 9.93886 18.9329 8.55991 19.9171 7.44313C20.9014 6.32634 22.2338 5.76794 23.9143 5.76794C26.2409 5.76794 27.7168 7.28744 28.342 10.3264L21.214 12.057C21.214 12.7195 21.5041 13.4425 22.0844 14.2262C22.6647 15.0098 23.5099 15.3998 24.6201 15.396C25.8158 15.396 26.8387 14.7931 27.6889 13.5874L28.4162 14.1864C27.271 16.0282 25.6259 16.9491 23.4811 16.9491ZM21.1087 11.0476L24.2517 10.3051C25.2494 10.06 25.7483 9.5901 25.7483 8.89542C25.7483 7.57042 25.0663 6.90792 23.7025 6.90792C21.9742 6.90981 21.1096 8.28971 21.1087 11.0476Z" fill="#B8B8AA"/>
<path d="M33.5254 16.7276C32.9073 16.668 32.1377 16.6382 31.2164 16.6382C30.2952 16.6382 29.5305 16.668 28.9223 16.7276V15.7339C29.696 15.7339 30.0824 15.4457 30.0815 14.8693V8.74069C30.0815 7.78669 29.7405 7.30969 29.0586 7.30969V6.42241C30.2556 6.15934 31.3916 5.65037 32.4013 4.92468L32.3878 8.65977C33.3441 6.50759 34.4341 5.43197 35.6576 5.43292C37.0845 5.43292 37.8294 5.98374 37.8924 7.08538C37.8924 8.06115 37.6814 8.70425 37.2595 9.01468C36.9437 8.14965 36.3814 7.71713 35.5726 7.71713C34.4489 7.73227 33.3873 8.58406 32.3878 10.2725V14.8636C32.3878 15.44 32.7674 15.7282 33.5268 15.7282L33.5254 16.7276Z" fill="#B8B8AA"/>
<path d="M50 16.7277C49.3325 16.6615 48.5066 16.6279 47.5223 16.6269C46.3834 16.6269 45.4837 16.6605 44.8233 16.7277V15.734C45.66 15.734 46.0892 15.4273 46.1108 14.814V9.77286C46.1027 8.24059 45.5179 7.47492 44.3564 7.47587C43.7087 7.47587 42.9984 7.69402 42.2256 8.13033V14.8027C42.2256 15.4159 42.6367 15.7226 43.459 15.7226V16.7163C42.7906 16.6501 41.9647 16.6165 40.9813 16.6156C39.8424 16.6156 38.9427 16.6491 38.2824 16.7163V15.7226C39.1128 15.7226 39.545 15.4159 39.5792 14.8027V9.20642C39.5459 8.17954 39.1636 7.6661 38.4322 7.6661V6.7774C39.9085 6.48212 41.1775 5.94596 42.2391 5.16895L42.2283 7.34384C43.9151 6.2933 45.212 5.76804 46.1189 5.76804C46.4671 5.76216 46.8128 5.83031 47.1353 5.96838C47.4579 6.10645 47.7506 6.31161 47.996 6.57156C48.5169 7.10818 48.7769 8.1786 48.776 9.7828V14.8083C48.776 15.4216 49.184 15.7283 50 15.7283V16.7277Z" fill="#B8B8AA"/>
</g>
<defs>
<clipPath id="clip0_3_717">
<rect width="50" height="16.9492" fill="white"/>
</clipPath>
</defs>
</svg>
